<svg xmlns="http://www.w3.org/2000/svg" viewBox="0 0 360 200" width="360" height="200" role="img" aria-label="Now Playing">
  <defs>
    <linearGradient id="np-bg" x1="0" y1="0" x2="1" y2="1">
      <stop offset="0%"   stop-color="#1a0033"/>
      <stop offset="100%" stop-color="#000814"/>
    </linearGradient>
    <pattern id="np-grid" width="20" height="20" patternUnits="userSpaceOnUse">
      <path d="M20 0 H0 V20" fill="none" stroke="#00f0ff" stroke-opacity="0.05"/>
    </pattern>
    <linearGradient id="np-border" x1="0" y1="0" x2="1" y2="1">
      <stop offset="0%"   stop-color="#00f0ff"/>
      <stop offset="100%" stop-color="#ff79c6"/>
    </linearGradient>
    <style><![CDATA[
      @keyframes bracket { 0%, 100% { stroke-opacity: 0.45; } 50% { stroke-opacity: 1; } }
      .bracket { animation: bracket 2.2s ease-in-out infinite; }
    ]]></style>
  </defs>

  <rect width="360" height="200" rx="14" fill="url(#np-bg)"/>
  <rect width="360" height="200" rx="14" fill="url(#np-grid)"/>
  <rect width="360" height="200" rx="14" fill="none" stroke="url(#np-border)" stroke-width="1.4"/>

  <g class="bracket" stroke="#00f0ff" stroke-width="1.5" fill="none">
    <polyline points="14,26 14,14 26,14"/>
    <polyline points="334,14 346,14 346,26"/>
    <polyline points="14,174 14,186 26,186"/>
    <polyline points="334,186 346,186 346,174"/>
  </g>

  <text x="24"   y="36" font-family="ui-monospace, monospace" font-size="13" font-weight="700" fill="#00f0ff">▸ NOW PLAYING</text>
  <text x="336" y="36" font-family="ui-monospace, monospace" font-size="10" text-anchor="end" fill="#888">JST</text>
  <line x1="24" y1="50" x2="336" y2="50" stroke="#00f0ff" stroke-opacity="0.3"/>

  <text x="24" y="54" font-family="ui-monospace, monospace" font-size="10" font-weight="700" fill="#00f0ff">▸ ANIME</text><text x="336" y="54" font-family="ui-monospace, monospace" font-size="8" text-anchor="end" fill="#5a6275">via mal</text>
  <text x="34" y="68" font-family="ui-monospace, monospace" font-size="11" fill="#ffb700">★</text><text x="48" y="68" font-family="ui-monospace, monospace" font-size="10" fill="#e8f7ff">Yuru Camp△</text><text x="48" y="79" font-family="ui-monospace, monospace" font-size="8" fill="#5a6275">peak comfy · all-time favorite</text>
  <text x="34" y="90" font-family="ui-monospace, monospace" font-size="11" fill="#00f0ff">▸</text><text x="48" y="90" font-family="ui-monospace, monospace" font-size="10" fill="#e8f7ff">Sousou no Frieren 2nd Sea… · plan to w…</text>
  <line x1="24" y1="110" x2="336" y2="110" stroke="#00f0ff" stroke-opacity="0.18"/>
  <text x="24" y="120" font-family="ui-monospace, monospace" font-size="10" font-weight="700" fill="#00f0ff">▸ MANGA</text><text x="336" y="120" font-family="ui-monospace, monospace" font-size="8" text-anchor="end" fill="#5a6275">via json</text>
  <text x="34" y="134" font-family="ui-monospace, monospace" font-size="11" fill="#ff79c6">★</text><text x="48" y="134" font-family="ui-monospace, monospace" font-size="10" fill="#e8f7ff">Usogui</text><text x="48" y="145" font-family="ui-monospace, monospace" font-size="8" fill="#5a6275">噬謊者 · all-time favorite</text>
  <text x="34" y="156" font-family="ui-monospace, monospace" font-size="11" fill="#ff79c6">▸</text><text x="48" y="156" font-family="ui-monospace, monospace" font-size="10" fill="#e8f7ff">Isekai Ojisan · 異世界叔叔 · current pick</text>
  <text x="24" y="192" font-family="ui-monospace, monospace" font-size="8" fill="#5a6275">▸ now playing</text><text x="336" y="192" font-family="ui-monospace, monospace" font-size="8" text-anchor="end" fill="#5a6275">updated · 01:10 JST</text>
</svg>
