<svg xmlns="http://www.w3.org/2000/svg" viewBox="0 0 600 230" width="600" height="230" role="img" aria-label="Productive Time JST">
  <defs>
    <linearGradient id="bg" x1="0" y1="0" x2="1" y2="1">
      <stop offset="0%"   stop-color="#1a0033"/>
      <stop offset="100%" stop-color="#000814"/>
    </linearGradient>
    <pattern id="grid" width="20" height="20" patternUnits="userSpaceOnUse">
      <path d="M20 0 H0 V20" fill="none" stroke="#00f0ff" stroke-opacity="0.05"/>
    </pattern>
    <filter id="glow" x="-20%" y="-20%" width="140%" height="140%">
      <feGaussianBlur stdDeviation="2" result="b"/>
      <feMerge><feMergeNode in="b"/><feMergeNode in="SourceGraphic"/></feMerge>
    </filter>
    <style><![CDATA[
      @keyframes bracket { 0%, 100% { stroke-opacity: 0.4; } 50% { stroke-opacity: 1; } }
      .bracket { animation: bracket 2.2s ease-in-out infinite; }
    ]]></style>
  </defs>

  <rect width="600" height="230" rx="14" fill="url(#bg)"/>
  <rect width="600" height="230" rx="14" fill="url(#grid)"/>
  <rect width="600" height="230" rx="14" fill="none" stroke="#00f0ff" stroke-opacity="0.55" stroke-width="1.2"/>

  <g class="bracket" stroke="#00f0ff" stroke-width="1.5" fill="none">
    <polyline points="14,26 14,14 26,14"/>
    <polyline points="574,14 586,14 586,26"/>
    <polyline points="14,204 14,216 26,216"/>
    <polyline points="574,216 586,216 586,204"/>
  </g>

  <text x="24"  y="36" font-family="ui-monospace, monospace" font-size="13" font-weight="700" fill="#00f0ff">▸ PRODUCTIVE TIME · JST</text>
  <text x="580" y="36" font-family="ui-monospace, monospace" font-size="10" text-anchor="end" fill="#888">sample · 65 events</text>

  <line x1="24" y1="52" x2="580" y2="52" stroke="#00f0ff" stroke-opacity="0.3"/>

    <g transform="translate(0,70)">
      <text x="24" y="14" font-family="ui-monospace, monospace" font-size="11" fill="#00f0ff">▸ MORNING</text>
      <text x="108" y="14" font-family="ui-monospace, monospace" font-size="9"  fill="#5a6275">06-12 JST</text>
      <rect x="210" y="3" width="290" height="18" rx="3" fill="#0a0a1a" stroke="#1a1a2e" stroke-width="1"/>
      <rect x="210" y="3" width="96" height="18" rx="3" fill="#ffb700" opacity="0.9" filter="url(#glow)"/>
      <text x="540" y="14" font-family="ui-monospace, monospace" font-size="11" text-anchor="end" fill="#e8f7ff">8</text>
      <text x="582" y="14" font-family="ui-monospace, monospace" font-size="9"  text-anchor="end" fill="#5a6275">12%</text>
    </g>
    <g transform="translate(0,102)">
      <text x="24" y="14" font-family="ui-monospace, monospace" font-size="11" fill="#00f0ff">▸ DAYTIME</text>
      <text x="108" y="14" font-family="ui-monospace, monospace" font-size="9"  fill="#5a6275">12-18 JST</text>
      <rect x="210" y="3" width="290" height="18" rx="3" fill="#0a0a1a" stroke="#1a1a2e" stroke-width="1"/>
      <rect x="210" y="3" width="290" height="18" rx="3" fill="#00f0ff" opacity="0.9" filter="url(#glow)"/>
      <text x="540" y="14" font-family="ui-monospace, monospace" font-size="11" text-anchor="end" fill="#e8f7ff">24</text>
      <text x="582" y="14" font-family="ui-monospace, monospace" font-size="9"  text-anchor="end" fill="#5a6275">37%</text>
    </g>
    <g transform="translate(0,134)">
      <text x="24" y="14" font-family="ui-monospace, monospace" font-size="11" fill="#00f0ff">▸ EVENING</text>
      <text x="108" y="14" font-family="ui-monospace, monospace" font-size="9"  fill="#5a6275">18-24 JST</text>
      <rect x="210" y="3" width="290" height="18" rx="3" fill="#0a0a1a" stroke="#1a1a2e" stroke-width="1"/>
      <rect x="210" y="3" width="145" height="18" rx="3" fill="#ff79c6" opacity="0.9" filter="url(#glow)"/>
      <text x="540" y="14" font-family="ui-monospace, monospace" font-size="11" text-anchor="end" fill="#e8f7ff">12</text>
      <text x="582" y="14" font-family="ui-monospace, monospace" font-size="9"  text-anchor="end" fill="#5a6275">18%</text>
    </g>
    <g transform="translate(0,166)">
      <text x="24" y="14" font-family="ui-monospace, monospace" font-size="11" fill="#00f0ff">▸ NIGHT</text>
      <text x="108" y="14" font-family="ui-monospace, monospace" font-size="9"  fill="#5a6275">00-06 JST</text>
      <rect x="210" y="3" width="290" height="18" rx="3" fill="#0a0a1a" stroke="#1a1a2e" stroke-width="1"/>
      <rect x="210" y="3" width="253" height="18" rx="3" fill="#b026ff" opacity="0.9" filter="url(#glow)"/>
      <text x="540" y="14" font-family="ui-monospace, monospace" font-size="11" text-anchor="end" fill="#e8f7ff">21</text>
      <text x="582" y="14" font-family="ui-monospace, monospace" font-size="9"  text-anchor="end" fill="#5a6275">32%</text>
    </g>

  <line x1="24" y1="200" x2="580" y2="200" stroke="#00f0ff" stroke-opacity="0.2"/>
  <text x="24"  y="218" font-family="ui-monospace, monospace" font-size="9" fill="#5a6275">▸ last push · 15:13 JST</text>
  <text x="580" y="218" font-family="ui-monospace, monospace" font-size="9" text-anchor="end" fill="#5a6275">updated · 2026-05-29 13:42 JST</text>
</svg>
